# xmcd
#
# Track frame offsets: 
#        150
#        13297
#        27886
#        39972
#        52893
#        65033
#        78908
#        94555
#        109920
#        122334
#        136066
#        150128
#        165550
#        180241
#        194667
#        207807
#        223317
#
# Disc length: 3187 seconds
#
# Revision: 2
# Processed by: cddbd v1.5.2PL0 Copyright (c) Steve Scherf et al.
# Submitted via: ExactAudioCopy v0.95b4
#
DISCID=d60c7111
DTITLE=Various Artist - Gone Fishin'
DYEAR=2000
DGENRE=Blues
TTITLE0=Blind Lemon Jefferson/Rabbit Foot Blues 
TTITLE1=Kokomo Arnold/You Should Not A Done It 
TTITLE2=Bukka White/District Attorney Blues 
TTITLE3=Leroy Carr/You Got To Reap What You Sow 
TTITLE4=Blind Boy Fuller/Pistol Slapper Blues 
TTITLE5=Lonnie Johnson/Uncle Ned, Don't Use Your Head 
TTITLE6=Son House/The Jinx Blues 
TTITLE7=Muddy Waters/Country Blues 
TTITLE8=Big Bill Broonzy/Good Liquor Gonna Carry Me Down 
TTITLE9=Tampa Red/Seminole Blues 
TTITLE10=Sleepy John Estes/Lawyer Clark Blues 
TTITLE11=Tommy Johnson/Cool Drink Of Water 
TTITLE12=Arthur Crudup/Who's Been Foolin' You 
TTITLE13=Barbeque Bob/Yo Yo Blues 
TTITLE14=Peetie Wheatstraw/Chicago Mill Blues 
TTITLE15=Texas Alexander/Frost Texas Tornado Blues 
TTITLE16=The Mississippi Sheiks/Stop And Listen Blues 
EXTD=YEAR: 2000 ID3G: 0
EXTT0=
EXTT1=
EXTT2=
EXTT3=
EXTT4=
EXTT5=
EXTT6=
EXTT7=
EXTT8=
EXTT9=
EXTT10=
EXTT11=
EXTT12=
EXTT13=
EXTT14=
EXTT15=
EXTT16=
PLAYORDER=
